<svg width="25" height="29" fill="none" xmlns="http://www.w3.org/2000/svg"><path d="M15.465 17.857a5.458 5.458 0 002.384-4.656 3.544 3.544 0 00-2.17-2.972c-.5-.23-1.017-.422-1.518-.604-1.47-.533-2.741-1.002-3.417-2.44-.42-.906-.46-1.263.064-2.034.235-.338.528-.632.866-.866.45-.324.988-.499 1.542-.501a.548.548 0 00.334-.095.675.675 0 00.135-.128.55.55 0 00.071-.508c-.532-1.59-2.829-2.154-4.18-1.86a3.878 3.878 0 00-1.335.533 2.455 2.455 0 00-.612.604A4.275 4.275 0 005.373.065a2.289 2.289 0 00-1.9.381h-.047A2.948 2.948 0 002.075 2.83a5.483 5.483 0 001.589 3.648c-.492.099-.962.29-1.383.564a2.988 2.988 0 00-.627.564c-.66.795-1.391 2.384-.525 3.544a.55.55 0 00.413.215.5.5 0 00.334-.095l.095-.08c.33-.352.694-.669 1.09-.946a3.06 3.06 0 013.861-.047c.866.7.85 1.414.795 2.487-.027.51-.01 1.02.047 1.526.255 1.875.612 3.512 2.384 4.577 2.01 1.2 3.688.072 4.911-.795.118-.066.232-.137.342-.214l.064.08z" fill="#F9B233"/><path d="M15.226 17.357c-1.51 1.033-2.925 2.05-4.689 1-1.59-.953-1.891-2.383-2.13-4.171-.238-1.788.43-3.179-1.096-4.37-1.955-1.59-4.132-.62-5.698 1.04-.627-.794-.087-2.145.509-2.837.795-.953 1.716-.866 2.678-1.24C3.21 5.51 1.502 2.474 3.846.916 5.873-.435 7.081 2.314 7.82 3.76c.071-1.192.794-1.772 1.97-2.026 1.176-.255 3.052.246 3.465 1.47a3.528 3.528 0 00-2.877 1.59 2.146 2.146 0 00-.11 2.582c1.016 2.193 3.257 2.384 5.204 3.321 3.576 1.67 1.415 6.58-1.724 7.287l1.478-.627z" fill="#3AAA35"/><path d="M14.058 24.739a2.43 2.43 0 00.977-1.59 1.47 1.47 0 00.652-.262 3.893 3.893 0 001.454-2.733 2.115 2.115 0 00-.668-1.788.548.548 0 00-.66-.064l-.643.413-.214.143-2.257 1.034a.262.262 0 00-.08.047.524.524 0 00-.206.247 2.71 2.71 0 01-2.511-.374 8.265 8.265 0 01-2.623-4.466 10.33 10.33 0 01-.071-2.114c.02-.137.049-.272.087-.405.215-.922.326-1.59-.048-1.93a1.033 1.033 0 00-1.366-.049 5.308 5.308 0 00-1.709 3.179h-.095a3.807 3.807 0 00-2.702.723A2.742 2.742 0 000 16.848a.549.549 0 00.866.46l.08-.063a2.218 2.218 0 011.74-.19c.193.047.38.116.556.206-.794.612-1.486 2.146-1.31 2.845a3.4 3.4 0 001.946 2.074 1.756 1.756 0 001.66-.135c.056-.051.106-.107.152-.167a.557.557 0 00-.7-.858h-.047a.135.135 0 01-.111 0c.093-.136.215-.25.357-.334.104-.071.207-.127.286-.175.596-.31.795-.302 1.24.533.165.318.308.647.43.985a3.926 3.926 0 001.803 2.384 2.042 2.042 0 002.201 0c.144-.097.272-.215.382-.35a1.59 1.59 0 001.74.906c.285-.03.558-.132.794-.294l-.007.064z" fill="#F9B233"/><path d="M15.806 19.041c-1.661 1.136-4.3 2.718-6.246 1.2a8.932 8.932 0 01-2.869-4.816 11.054 11.054 0 01-.08-2.233c0-.325.47-1.645.207-1.899-.858-.842-2.717 2.821-1.994 3.83-1.01-1.589-4.307.191-4.315 1.701a2.948 2.948 0 013.973.866c-.866-1.01-2.201 1.59-2.042 2.257.254 1.025 1.93 2.384 2.892 1.502a.628.628 0 01-1.017-.334c-.087-.477.596-.906.93-1.08.985-.525 1.438-.223 1.979.746.635 1.12.723 2.495 2.002 3.179 1.28.683 2.185 0 2.384-1.383.405.7.246 2.066 1.653 1.9a1.724 1.724 0 001.136-2.313c.795 1.59 3.274-2.058 1.74-3.417a9.982 9.982 0 01-3.178 1.63l2.845-1.336z" fill="#008D36"/><path d="M21.448 18.381a1.518 1.518 0 00.795-1.223 1.758 1.758 0 00-.533-1.224c.184-.082.36-.18.525-.294a2.08 2.08 0 00.937-1.542 2.964 2.964 0 00-.993-2.05c-.159-.19-.31-.365-.413-.516-.525-.795-.421-.898.04-1.216l.08-.048c.635-.405 1.151-.365 1.588.127a.563.563 0 00.636.167l.111-.055a.548.548 0 00.239-.493V9.64a2.2 2.2 0 00-.342-1.343 4.847 4.847 0 00-1.542-1.589 2.9 2.9 0 00-3.44.103 5.628 5.628 0 00-.398.294 1.47 1.47 0 01.104-.794c.15-.332.4-.61.715-.795.348-.226.645-.52.874-.866a.532.532 0 000-.5.555.555 0 00-.39-.327 3.648 3.648 0 00-2.98.493 4.673 4.673 0 00-1.589 2.114l-.087-.056a2.63 2.63 0 00-2.217-.437 2.75 2.75 0 00-.684.342 1.875 1.875 0 00-.97 1.796.549.549 0 00.454.445c.395.064.797.064 1.192 0 .328-.06.665-.06.993 0 .366.106.718.256 1.049.445.215.111.413.214.612.302a4.609 4.609 0 012.098 2.24c.739 1.487.063 2.917-.66 4.435-.485 1.033-.97 2.32-.397 3.178a1.677 1.677 0 001.59.628 3.06 3.06 0 001.493-.492c.268-.17.478-.417.604-.708a.54.54 0 00.588.04l.318-.19v-.017z" fill="#F9B233"/><path d="M18.404 11.262a5.253 5.253 0 00-2.384-2.496 11.804 11.804 0 00-1.748-.794c-.747-.183-1.518.159-2.225.047-.12-.66.676-1.327 1.28-1.517.953-.302 1.589.397 2.44.747.611-1.98 2.026-3.346 4.171-2.845-.413.675-1.327.866-1.637 1.716a1.589 1.589 0 00.286 1.828c1.12-1.033 2.162-1.685 3.687-.795.55.355 1.01.834 1.343 1.399.358.604.23.842.27 1.462a1.589 1.589 0 00-2.304-.215c-.977.62-.866 1.177-.286 2.043.421.635 1.375 1.367 1.311 2.209-.08.985-1.208 1.518-2.05 1.59.977.794 1.732 1.636.294 2.383-.31-.46-.85-.183-1.113-.675.93 1.025-.405 1.708-1.343 1.772-2.026.119-1.168-1.971-.675-3.004.755-1.51 1.526-3.147.683-4.855z" fill="#008D36"/><path d="M11.825 15.958a2.804 2.804 0 010-1.907c.644-1.041 1.399-.056 1.59.691-.27-.596.159-1.804.969-1.788 1.399.04.795 2.17.103 2.48.795-.684 1.685-.239 1.852.755a1.796 1.796 0 01-1.812 1.954 3.448 3.448 0 01-2.702-2.185z" fill="#F9B233"/><path d="M15.274 17.81c.89 1.207 1.836 2.431 2.702 3.695l1.788 2.606c.341.493.715 1.303 1.224 1.55a2.837 2.837 0 00-2.798-1.423c-1.152.215-2.384 1.907-1.39 2.948 0-1.374 2.384-1.517 3.345-1.223.962.294 2.559 1.947 3.179 2.892-.493-1.343-1.32-2.654-1.208-4.188a2.988 2.988 0 012.885-2.28c-.795-1.542-4.41.484-3.656 1.962-.643-.19-1.446-1.501-1.828-2.042-.572-.794-1.152-1.66-1.756-2.463-.453-.604-.874-1.24-1.303-1.868-.429-.627-.683-.794-1.335-.206a.977.977 0 00.215.357l-.064-.317z" fill="#F9B233"/></svg>