<svg width="40" height="24" viewBox="0 0 40 24" fill="none" xmlns="http://www.w3.org/2000/svg">
<path d="M34.4257 15.0752C35.7526 16.3706 37.153 17.5894 38.343 19.0155C38.8687 19.6492 39.3664 20.3031 39.7472 21.0386C40.2867 22.0841 39.798 23.2345 38.8606 23.297L33.0333 23.2943C31.5303 23.419 30.3313 22.814 29.3232 21.7863C28.5164 20.9645 27.7692 20.0899 26.9934 19.2404C26.6754 18.8932 26.3425 18.5665 25.9448 18.3082C25.1494 17.7919 24.4588 17.9499 24.0042 18.7796C23.5412 19.6235 23.4362 20.5579 23.3907 21.4984C23.3283 22.8706 22.9135 23.2313 21.5351 23.2941C18.5894 23.4331 15.7938 22.9874 13.1967 21.5014C10.907 20.1914 9.13155 18.342 7.58608 16.2483C4.57725 12.1715 2.27295 7.69165 0.202017 3.08634C-0.264155 2.04876 0.0767822 1.49181 1.22163 1.47204C3.12264 1.43509 5.02342 1.43774 6.9267 1.46938C7.69936 1.48071 8.21084 1.92384 8.5092 2.65376C9.53772 5.18274 10.7962 7.58884 12.3759 9.81907C12.7966 10.4128 13.2256 11.0066 13.8364 11.4245C14.5122 11.8873 15.0267 11.7339 15.3446 10.9811C15.5463 10.5038 15.6347 9.98962 15.6801 9.47845C15.8308 7.71962 15.8506 5.96376 15.5865 4.2111C15.4243 3.11727 14.8082 2.40915 13.7167 2.2022C13.1598 2.09665 13.2426 1.88938 13.5123 1.57149C13.9807 1.02321 14.4212 0.681885 15.2994 0.681885H21.8852C22.922 0.886494 23.1523 1.35228 23.2942 2.39548L23.2998 9.71087C23.2885 10.1147 23.5015 11.3132 24.229 11.5805C24.8112 11.7708 25.1949 11.305 25.5443 10.9359C27.1211 9.26235 28.2465 7.28454 29.2519 5.23657C29.698 4.33602 30.0817 3.40087 30.4535 2.46642C30.729 1.77306 31.1612 1.43188 31.9423 1.44696L38.2807 1.45259C38.4687 1.45259 38.6588 1.45532 38.8408 1.48649C39.9089 1.66853 40.2016 2.12798 39.8717 3.17095C39.3519 4.80727 38.3406 6.17095 37.3518 7.54087C36.2948 9.00345 35.1642 10.416 34.116 11.8873C33.1529 13.231 33.2294 13.9082 34.4257 15.0752Z" fill="#436EAB"/>
</svg>
